<svg width="18" height="20" viewBox="0 0 18 20" fill="none" xmlns="http://www.w3.org/2000/svg">
<path d="M3 20C2.16667 20 1.45833 19.7083 0.875 19.125C0.291667 18.5417 0 17.8333 0 17V3C0 2.16667 0.291667 1.45833 0.875 0.875C1.45833 0.291667 2.16667 0 3 0H14V16H3C2.71667 16 2.47917 16.0958 2.2875 16.2875C2.09583 16.4792 2 16.7167 2 17C2 17.2833 2.09583 17.5208 2.2875 17.7125C2.47917 17.9042 2.71667 18 3 18H16V2H18V20H3ZM6 14H12V2H6V14ZM4 14V2H3C2.71667 2 2.47917 2.09583 2.2875 2.2875C2.09583 2.47917 2 2.71667 2 3V14.175C2.16667 14.125 2.32917 14.0833 2.4875 14.05C2.64583 14.0167 2.81667 14 3 14H4Z" fill="#2870ED"/>
</svg>
