<svg width="22" height="19" viewBox="0 0 22 19" fill="none" xmlns="http://www.w3.org/2000/svg">
<path d="M10 15.468V5.61797C9.31667 5.21797 8.59167 4.91797 7.825 4.71797C7.05833 4.51797 6.28333 4.41797 5.5 4.41797C4.9 4.41797 4.30417 4.4763 3.7125 4.59297C3.12083 4.70964 2.55 4.88464 2 5.11797V15.018C2.58333 14.818 3.1625 14.668 3.7375 14.568C4.3125 14.468 4.9 14.418 5.5 14.418C6.28333 14.418 7.04583 14.5055 7.7875 14.6805C8.52917 14.8555 9.26667 15.118 10 15.468ZM11 18.418C10.2 17.7846 9.33333 17.293 8.4 16.943C7.46667 16.593 6.5 16.418 5.5 16.418C4.8 16.418 4.1125 16.5096 3.4375 16.693C2.7625 16.8763 2.11667 17.1346 1.5 17.468C1.15 17.6513 0.8125 17.643 0.4875 17.443C0.1625 17.243 0 16.9513 0 16.568V4.51797C0 4.33464 0.0458333 4.15964 0.1375 3.99297C0.229167 3.8263 0.366667 3.7013 0.55 3.61797C1.31667 3.21797 2.11667 2.91797 2.95 2.71797C3.78333 2.51797 4.63333 2.41797 5.5 2.41797C6.73333 2.41797 7.78333 2.55964 8.65 2.84297C9.51667 3.1263 10.45 3.55964 11.45 4.14297C11.6333 4.24297 11.7708 4.35964 11.8625 4.49297C11.9542 4.6263 12 4.8013 12 5.01797V15.468C12.7333 15.118 13.4708 14.8555 14.2125 14.6805C14.9542 14.5055 15.7167 14.418 16.5 14.418C17.1 14.418 17.6875 14.468 18.2625 14.568C18.8375 14.668 19.4167 14.818 20 15.018V2.99297C20.25 3.0763 20.4958 3.16797 20.7375 3.26797C20.9792 3.36797 21.2167 3.48464 21.45 3.61797C21.6333 3.7013 21.7708 3.8263 21.8625 3.99297C21.9542 4.15964 22 4.33464 22 4.51797V16.568C22 16.9513 21.8375 17.243 21.5125 17.443C21.1875 17.643 20.85 17.6513 20.5 17.468C19.8833 17.1346 19.2375 16.8763 18.5625 16.693C17.8875 16.5096 17.2 16.418 16.5 16.418C15.5 16.418 14.5333 16.593 13.6 16.943C12.6667 17.293 11.8 17.7846 11 18.418ZM14.5 12.418V1.41797L17.5 0.417969V11.418L14.5 12.418Z" fill="#EB4C79"/>
</svg>
