<svg width="14" height="11" viewBox="0 0 14 11" fill="none" xmlns="http://www.w3.org/2000/svg">
<path d="M13.7064 2.28846C13.8886 2.09986 13.9894 1.84726 13.9871 1.58506C13.9848 1.32286 13.8797 1.07205 13.6942 0.886643C13.5088 0.701235 13.258 0.596066 12.9958 0.593788C12.7336 0.591509 12.481 0.692304 12.2924 0.874462L5.49943 7.66746L2.20643 4.37446C2.01783 4.1923 1.76523 4.09151 1.50303 4.09379C1.24083 4.09607 0.99002 4.20124 0.804612 4.38664C0.619204 4.57205 0.514035 4.82286 0.511757 5.08506C0.509478 5.34726 0.610272 5.59986 0.792431 5.78846L4.79243 9.78846C4.97996 9.97593 5.23427 10.0812 5.49943 10.0812C5.76459 10.0812 6.0189 9.97593 6.20643 9.78846L13.7064 2.28846Z" fill="#212121"/>
</svg>
