<svg width="18" height="21" viewBox="0 0 18 21" fill="none" xmlns="http://www.w3.org/2000/svg">
<path d="M3 20.9141C2.16667 20.9141 1.45833 20.6224 0.875 20.0391C0.291667 19.4557 0 18.7474 0 17.9141V3.91406C0 3.08073 0.291667 2.3724 0.875 1.78906C1.45833 1.20573 2.16667 0.914062 3 0.914062H14V16.9141H3C2.71667 16.9141 2.47917 17.0099 2.2875 17.2016C2.09583 17.3932 2 17.6307 2 17.9141C2 18.1974 2.09583 18.4349 2.2875 18.6266C2.47917 18.8182 2.71667 18.9141 3 18.9141H16V2.91406H18V20.9141H3ZM6 14.9141H12V2.91406H6V14.9141ZM4 14.9141V2.91406H3C2.71667 2.91406 2.47917 3.0099 2.2875 3.20156C2.09583 3.39323 2 3.63073 2 3.91406V15.0891C2.16667 15.0391 2.32917 14.9974 2.4875 14.9641C2.64583 14.9307 2.81667 14.9141 3 14.9141H4Z" fill="#FF6130"/>
</svg>
