<svg width="40" height="40" viewBox="0 0 40 40" fill="none" xmlns="http://www.w3.org/2000/svg">
<path d="M20 15.04C19.019 15.04 18.06 15.3309 17.2444 15.8759C16.4287 16.4209 15.793 17.1956 15.4176 18.1019C15.0421 19.0082 14.9439 20.0055 15.1353 20.9676C15.3267 21.9298 15.7991 22.8136 16.4928 23.5072C17.1864 24.2009 18.0702 24.6733 19.0324 24.8647C19.9945 25.0561 20.9918 24.9579 21.8981 24.5824C22.8044 24.207 23.5791 23.5713 24.1241 22.7556C24.6691 21.94 24.96 20.981 24.96 20C24.96 19.3486 24.8317 18.7037 24.5824 18.1019C24.3332 17.5001 23.9678 16.9533 23.5072 16.4928C23.0467 16.0322 22.4999 15.6668 21.8981 15.4176C21.2963 15.1683 20.6514 15.04 20 15.04ZM39.86 10.14C39.8508 8.5954 39.5663 7.0648 39.02 5.62C38.6186 4.56252 37.9974 3.60219 37.1976 2.80237C36.3978 2.00255 35.4375 1.38144 34.38 0.98C32.9352 0.433695 31.4046 0.149248 29.86 0.14C27.28 -1.3411e-07 26.52 0 20 0C13.48 0 12.72 -1.3411e-07 10.14 0.14C8.5954 0.149248 7.0648 0.433695 5.62 0.98C4.56252 1.38144 3.60219 2.00255 2.80237 2.80237C2.00255 3.60219 1.38144 4.56252 0.98 5.62C0.433695 7.0648 0.149248 8.5954 0.14 10.14C-1.3411e-07 12.72 0 13.48 0 20C0 26.52 -1.3411e-07 27.28 0.14 29.86C0.163059 31.4098 0.447033 32.9446 0.98 34.4C1.37741 35.4538 1.9983 36.409 2.8 37.2C3.59679 38.0041 4.55907 38.6252 5.62 39.02C7.0648 39.5663 8.5954 39.8508 10.14 39.86C12.72 40 13.48 40 20 40C26.52 40 27.28 40 29.86 39.86C31.4046 39.8508 32.9352 39.5663 34.38 39.02C35.4409 38.6252 36.4032 38.0041 37.2 37.2C38.0017 36.409 38.6226 35.4538 39.02 34.4C39.5645 32.9478 39.8489 31.4109 39.86 29.86C40 27.28 40 26.52 40 20C40 13.48 40 12.72 39.86 10.14ZM34.78 26.14C34.7169 27.3743 34.4534 28.5902 34 29.74C33.6117 30.6994 33.0345 31.5709 32.3027 32.3027C31.5709 33.0345 30.6994 33.6117 29.74 34C28.5793 34.4282 27.3567 34.6646 26.12 34.7H13.88C12.6433 34.6646 11.4207 34.4282 10.26 34C9.26789 33.6321 8.37211 33.044 7.64 32.28C6.91483 31.5629 6.35511 30.696 6 29.74C5.57148 28.5801 5.3416 27.3563 5.32 26.12V13.88C5.3416 12.6437 5.57148 11.4199 6 10.26C6.36794 9.26789 6.95601 8.37211 7.72 7.64C8.44105 6.91972 9.3068 6.36073 10.26 6C11.4207 5.57179 12.6433 5.33536 13.88 5.3H26.12C27.3567 5.33536 28.5793 5.57179 29.74 6C30.7321 6.36794 31.6279 6.95601 32.36 7.72C33.0852 8.43709 33.6449 9.30398 34 10.26C34.4282 11.4207 34.6646 12.6433 34.7 13.88V20C34.7 24.12 34.84 24.54 34.78 26.12V26.14ZM31.58 11.26C31.3419 10.614 30.9664 10.0273 30.4796 9.54043C29.9927 9.05357 29.406 8.67813 28.76 8.44C27.8729 8.13252 26.9387 7.98358 26 8H14C13.0565 8.00922 12.1221 8.18527 11.24 8.52C10.6039 8.74731 10.0234 9.10742 9.53717 9.5764C9.05095 10.0454 8.67012 10.6125 8.42 11.24C8.13061 12.131 7.98874 13.0633 8 14V26C8.02092 26.9423 8.1966 27.8747 8.52 28.76C8.75813 29.406 9.13357 29.9927 9.62043 30.4796C10.1073 30.9664 10.694 31.3419 11.34 31.58C12.1936 31.8928 13.0914 32.0684 14 32.1H26C26.9435 32.0908 27.8779 31.9147 28.76 31.58C29.406 31.3419 29.9927 30.9664 30.4796 30.4796C30.9664 29.9927 31.3419 29.406 31.58 28.76C31.9147 27.8779 32.0908 26.9435 32.1 26V14C32.0996 13.0557 31.9233 12.1197 31.58 11.24V11.26ZM20 27.64C18.9976 27.64 18.0051 27.4422 17.0793 27.0581C16.1535 26.6739 15.3126 26.1108 14.6048 25.4011C13.8969 24.6914 13.3361 23.849 12.9543 22.9222C12.5725 21.9954 12.3774 21.0024 12.38 20C12.38 18.4881 12.8286 17.0102 13.669 15.7534C14.5094 14.4966 15.7037 13.5173 17.1009 12.9397C18.4981 12.362 20.0353 12.2119 21.5179 12.5083C23.0004 12.8047 24.3617 13.5343 25.4294 14.6048C26.497 15.6753 27.2231 17.0385 27.5156 18.5218C27.8082 20.0051 27.654 21.5419 27.0727 22.9376C26.4914 24.3333 25.509 25.5251 24.25 26.3622C22.991 27.1992 21.5119 27.644 20 27.64ZM28 13.86C27.5579 13.8132 27.1487 13.6044 26.8514 13.2739C26.554 12.9434 26.3895 12.5146 26.3895 12.07C26.3895 11.6254 26.554 11.1966 26.8514 10.8661C27.1487 10.5356 27.5579 10.3268 28 10.28C28.4421 10.3268 28.8513 10.5356 29.1486 10.8661C29.446 11.1966 29.6105 11.6254 29.6105 12.07C29.6105 12.5146 29.446 12.9434 29.1486 13.2739C28.8513 13.6044 28.4421 13.8132 28 13.86Z" fill="#2870ED"/>
</svg>
