<svg width="40" height="40" viewBox="0 0 40 40" fill="none" xmlns="http://www.w3.org/2000/svg">
<path d="M30.8779 0H9.12205C6.70273 0 4.3825 0.961071 2.67179 2.67179C0.961071 4.3825 0 6.70273 0 9.12205V30.8779C0 33.2973 0.961071 35.6175 2.67179 37.3282C4.3825 39.0389 6.70273 40 9.12205 40H30.8779C33.2973 40 35.6175 39.0389 37.3282 37.3282C39.0389 35.6175 40 33.2973 40 30.8779V9.12205C40 6.70273 39.0389 4.3825 37.3282 2.67179C35.6175 0.961071 33.2973 0 30.8779 0ZM13.5241 32.2913C13.5305 32.4029 13.5141 32.5147 13.4757 32.6198C13.4374 32.7248 13.378 32.821 13.3011 32.9022C13.2243 32.9835 13.1316 33.0482 13.0289 33.0923C12.9261 33.1365 12.8154 33.1592 12.7036 33.159H9.05231C8.83212 33.1536 8.62282 33.0621 8.46939 32.904C8.31597 32.746 8.23066 32.5341 8.2318 32.3139V17.1282C8.22878 17.0186 8.24777 16.9094 8.28766 16.8073C8.32754 16.7051 8.3875 16.612 8.46399 16.5334C8.54049 16.4548 8.63196 16.3923 8.73301 16.3497C8.83406 16.307 8.94263 16.2851 9.05231 16.2851H12.7036C12.8133 16.2851 12.9218 16.307 13.0229 16.3497C13.1239 16.3923 13.2154 16.4548 13.2919 16.5334C13.3684 16.612 13.4284 16.7051 13.4682 16.8073C13.5081 16.9094 13.5271 17.0186 13.5241 17.1282V32.2913ZM10.8103 13.0913C10.4149 13.0883 10.0241 13.0075 9.66 12.8535C9.29591 12.6995 8.96573 12.4753 8.68829 12.1936C8.41086 11.912 8.19161 11.5785 8.04307 11.2122C7.89453 10.8458 7.8196 10.4538 7.82256 10.0585C7.82553 9.66315 7.90632 9.27229 8.06034 8.90821C8.21436 8.54412 8.43858 8.21393 8.7202 7.9365C9.00183 7.65906 9.33534 7.43982 9.70169 7.29128C10.068 7.14274 10.4601 7.06781 10.8554 7.07077C11.64 7.09629 12.3836 7.42743 12.9276 7.99355C13.4715 8.55967 13.7726 9.31594 13.7667 10.101C13.7608 10.886 13.4484 11.6377 12.896 12.1956C12.3437 12.7535 11.5952 13.0734 10.8103 13.0872M32.999 32.2667C32.998 32.4739 32.9166 32.6727 32.772 32.8212C32.6274 32.9697 32.4308 33.0562 32.2236 33.0626H28.3692C28.1617 33.0562 27.9648 32.9694 27.8201 32.8205C27.6754 32.6716 27.5943 32.4722 27.5938 32.2646V25.241C27.5938 24.1928 27.9138 20.681 24.8123 20.681C22.3938 20.681 21.9159 23.1426 21.8236 24.2379V32.4246C21.8237 32.6326 21.7428 32.8324 21.598 32.9818C21.4533 33.1311 21.2561 33.2182 21.0482 33.2246H17.3087C17.0969 33.2241 16.8939 33.1395 16.7444 32.9896C16.5948 32.8396 16.5108 32.6364 16.5108 32.4246V17.0544C16.5172 16.8465 16.6043 16.6493 16.7536 16.5045C16.903 16.3598 17.1028 16.2789 17.3108 16.279H21.0482C21.2562 16.2789 21.456 16.3598 21.6054 16.5045C21.7547 16.6493 21.8418 16.8465 21.8482 17.0544V18.3774C22.3939 17.5787 23.1473 16.9441 24.0272 16.5422C24.9071 16.1402 25.88 15.9861 26.841 16.0964C33.0667 16.0964 33.0441 21.9118 33.0441 25.2185L32.999 32.2667Z" fill="#2870ED"/>
</svg>
