<svg width="23" height="21" viewBox="0 0 23 21" fill="none" xmlns="http://www.w3.org/2000/svg">
<path d="M20.75 17V18H2.75002V17L4.75002 15V9C4.75002 5.9 6.78002 3.17 9.75002 2.29V2C9.75002 1.46957 9.96073 0.960859 10.3358 0.585786C10.7109 0.210714 11.2196 0 11.75 0C12.2805 0 12.7892 0.210714 13.1642 0.585786C13.5393 0.960859 13.75 1.46957 13.75 2V2.29C16.72 3.17 18.75 5.9 18.75 9V15L20.75 17ZM13.75 19C13.75 19.5304 13.5393 20.0391 13.1642 20.4142C12.7892 20.7893 12.2805 21 11.75 21C11.2196 21 10.7109 20.7893 10.3358 20.4142C9.96073 20.0391 9.75002 19.5304 9.75002 19M19.5 1.19L18.08 2.61C18.9259 3.44535 19.5975 4.44034 20.0558 5.53726C20.5141 6.63417 20.7501 7.81118 20.75 9H22.75C22.75 6.07 21.59 3.25 19.5 1.19ZM0.750019 9H2.75002C2.75002 6.6 3.71002 4.3 5.42002 2.61L4.00002 1.19C2.9679 2.21157 2.14909 3.42807 1.59116 4.76881C1.03323 6.10955 0.747315 7.54781 0.750019 9Z" fill="white"/>
</svg>
