<svg width="346" height="407" viewBox="0 0 346 407" fill="none" xmlns="http://www.w3.org/2000/svg">
<path d="M271.824 237.667C292.28 268.77 250.538 185.229 248.192 175.647C229.487 125.104 313.754 294.591 325.063 330.298C329.885 343.796 348.256 364.625 345.622 377.764C339.804 371.742 338.285 361.899 330.082 360.687C331.434 368.327 348.219 396.049 330.855 381.005C333.783 401.255 323.62 369.035 317.833 369.954C327.557 417.117 235.009 216.302 218.805 182.295C240.986 249.813 252.43 322.964 284.285 384.89C278.485 380.215 277.174 372.934 272.558 366.321C278.598 380.498 284.953 406.089 270.14 377.11C266.838 381.97 275.309 391.482 276.981 396.872C272.895 401.368 272.622 395.485 269.523 394.151C270.527 413.681 260.125 393.474 255.673 386.625C251.411 389.346 264.847 416.688 253.465 401.726C241.923 359.805 218.412 325.763 199.508 289.105C254.731 374.585 199.72 264.391 173.272 230.743C156.808 202.523 167.429 233.458 175.854 246.778C180.959 256.234 188.831 259.434 189.4 270.133C207.529 304.939 178.056 260.385 170.481 246.426C173.966 256.737 176.677 267.557 179.365 278.226C187.958 302.264 187.967 328.288 192.532 352.294C191.714 357.751 199.399 371.755 192.859 373.017C189.413 367.389 190.87 361.758 184.177 359.566C182.996 366.305 188.779 383.614 177.909 371.116C176.695 372.427 176.182 378.929 174.689 372.819C173.647 366.01 168.436 355.154 169.467 368.918C170.679 373.073 179.021 375.409 173.899 379.276C164.19 371.533 170.634 371.257 156.103 360.734C156.559 355.948 153.686 358.523 152.447 360.744C151.17 353.266 148.59 357.686 144.244 350.564C134.05 337.933 118.007 306.794 104.618 302.253C121.774 332.14 146.344 355.793 162.73 385.285C137.991 364.974 122.096 319.33 95.7458 305.072C62.3235 264.996 24.6912 221.576 0.30853 174.73C2.88206 172.646 7.1575 179.923 9.80206 181.638C12.4126 176.784 3.08307 170.169 4.50926 166.112C6.48016 165.306 6.48489 169.045 8.49973 167.695C6.62413 149.422 15.4468 166.968 20.7197 170.269C23.353 162.675 18.6093 160.295 16.8369 153.371C24.5308 153.497 145.907 310.776 98.1551 262.183C90.8522 254.559 81.5584 235.517 68.8372 229.677C87.7469 263.389 115.114 293.193 137.797 323.542C147.806 335.965 170.245 378.914 159.43 341.434C147.94 326.054 95.7931 255.286 128.364 294.86C189.781 394.627 122.09 203.553 110.744 161.65C98.9532 136.496 98.0279 110.601 110.202 152.402C119.002 173.829 124.529 197.32 135.411 218.065C140.108 208.893 126.487 191.53 125.879 181.163C122.604 170.679 113.694 153.161 115.053 146.154C113.572 140.385 101.163 128.849 106.258 123.983C126.759 151.198 97.996 105.332 120.299 118.741C118.368 102.343 126.669 127.428 131.903 125.437C119.547 91.0413 146.675 137.794 152.59 148.455C170.02 171.463 205.935 254.954 189.066 186.985C191.699 200.748 199.643 210.638 202.026 221.933C199.281 230.464 219.629 263.883 214.726 252.028C193.515 171.1 176.424 86.0092 135.903 14.182C142.713 18.5656 143.135 25.8348 148.596 31.863C138.201 3.16513 182.148 90.973 187.111 100.74C184.958 80.6705 171.703 66.2969 165.189 48.7143C160.882 35.0271 153.246 16.922 141.424 0.0284626C191.286 54.6424 227.177 161.62 271.903 237.615L271.824 237.667ZM172.127 78.7391C172.121 80.0143 172.115 80.6794 172.102 81.3204C173.228 82.2394 172.914 79.8711 172.127 78.7391ZM114.378 122.727C115.813 126.68 117.155 130.715 118.503 134.694C122.158 135.136 115.289 125.545 114.378 122.727ZM127.813 148.24L123.542 140.749C122.185 142.821 124.241 144.111 124.748 145.57C124.875 148.634 126.518 147.851 127.805 148.216L127.813 148.24ZM124.019 149.487C124.015 148.56 123.859 147.76 123.1 147.097C123.401 147.904 123.696 148.687 124.019 149.487ZM119.168 153.454C119.033 153.709 118.855 153.977 118.862 154.002C119.53 154.985 120.073 154.125 119.168 153.454ZM121.783 158.495C121.149 157.925 119.99 156.751 120.816 158.613C121.154 158.852 121.726 159.149 121.783 158.495ZM28.3411 175.485C28.6052 177.312 29.7911 177.204 31.004 177.486C31.6044 174.909 29.1774 173.126 28.3411 175.485ZM27.8253 181.219C29.0251 178.798 26.007 174.681 23.5967 175.307L27.8253 181.219ZM52.8616 245.344L50.6394 241.931C50.2277 243.891 52.0928 246.169 52.8616 245.344ZM56.8633 253.423C57.5049 251.965 56.7894 250.148 54.7167 247.97C55.4019 249.691 56.087 251.412 56.8633 253.423ZM68.0937 252.701C67.534 251.48 66.6569 250.871 65.4623 250.876C66.2267 251.405 66.9987 251.958 68.0937 252.701ZM67.8892 263.908C66.168 262.619 60.0413 251.892 60.5201 257.366C62.7851 259.014 65.7974 264.938 67.8892 263.908ZM88.5073 281.615C93.2277 280.501 82.4606 270.306 80.4107 267.821C75.5773 268.652 86.8607 278.207 88.5073 281.615ZM69.3944 265.955C69.0992 270.717 75.1958 275.192 77.6753 279.347C88.0554 287.78 73.3194 269.23 69.3944 265.955ZM99.0267 292.923C100.021 293.194 99.2464 290.201 98.47 291.002L99.0267 292.923ZM123.341 315.914C122.881 313.008 121.556 310.851 119.361 309.499C120.347 311.948 121.404 314.321 123.341 315.914ZM147.103 348.019C147.023 346.32 146.211 344.957 146.193 346.953C146.269 347.194 146.548 347.398 147.103 348.019ZM149.593 351.295C149.474 350.006 148.521 350.093 149.025 351.314C149.04 351.363 149.331 351.298 149.593 351.295ZM181.445 347.161C182.013 347.751 182.235 358.108 183.875 352.604C182.525 348.996 185.248 348.909 181.445 347.161ZM185.992 346.711C184.698 348.073 184.988 351.352 187.067 349.901C188.026 348.539 187.184 347.689 185.992 346.711ZM180.645 203.856C182.222 207.144 183.686 208.576 185.035 208.152C183.412 206.567 182.032 205.223 180.645 203.856ZM176.061 196.888C176.426 196.986 178.668 201.905 179.091 200.286C178.229 198.992 178.073 197.051 176.061 196.888ZM136.575 200.48C136.547 197.73 135.535 195.581 133.548 193.978C133.88 196.553 135.195 198.527 136.575 200.48ZM141.135 228.574C142.098 228.138 140.179 226.221 139.945 227.303L141.135 228.574ZM150.101 255.546C150.385 251.583 143.059 234.309 144.42 244.333C145.786 246.928 147.597 260.207 150.101 255.546ZM140.776 248.107C137.881 251.83 142.671 260.59 144.444 265.312C148.387 269.403 141.871 251.662 140.776 248.107ZM145.96 269.292C146.604 272.405 147.104 275.511 147.697 278.614C150.987 282.301 147.42 268.461 145.96 269.292ZM155.026 276.971C155.966 275.322 155.959 275.298 155.071 273.694C155.045 275.055 155.035 276.013 155.026 276.971ZM152.191 290.916C151.203 291.121 151.72 293.903 153.388 294.493C153.388 294.493 152.213 290.909 152.191 290.916ZM151.338 288.054C150.751 283.755 150.721 283.738 148.637 283.651C149.692 285.256 150.489 286.65 151.338 288.054ZM168.731 276.054C180.308 305.547 161.803 223.714 155.883 221.624C125.721 168.425 162.733 253.348 168.731 276.054ZM182.896 222.409C182.379 220.767 182.022 219.632 181.665 218.498C181.51 220.032 181.92 221.336 182.896 222.409ZM193.269 224.662C190.591 220.942 190.11 214.169 185.801 213.323C188.609 216.923 190.631 224.564 193.269 224.662ZM247.386 371.616C246.985 371.026 246.584 370.436 246.197 369.815C246.359 370.481 246.694 371.091 247.386 371.616ZM250.49 364.909C248.821 367.132 251.165 373.743 254.029 374.938L250.49 364.909ZM240.305 273.109L241.557 278.684C242.459 276.914 241.558 273.139 240.305 273.109ZM229.116 256.254C228.503 254.988 227.896 253.746 226.999 251.959C227.188 253.775 227.893 255.206 229.116 256.254ZM199.993 238.809C198.869 235.237 197.581 227.497 194.147 227.756C195.922 231.574 197.915 235.245 199.993 238.809ZM238.654 260.947C237.555 261.964 237.737 264.543 239.198 268.681C239.028 266.241 238.851 263.776 238.654 260.947ZM194.351 240.187C194.757 247.329 200.576 252.899 203.859 258.313C206.985 256.162 197.746 243.602 194.351 240.187ZM230.683 240.028C231.992 242.668 234.701 259.484 236.118 253.573C234.197 249.747 233.514 241.499 230.683 240.028ZM229.807 236.484C231.511 230.801 226.765 221.496 225.613 214.643C217.924 196.899 226.878 229.685 229.807 236.484ZM216.288 216.251C224.036 237.982 218.709 211.403 215.308 202.498C210.352 197.77 216.672 213.901 216.288 216.251ZM320.699 342.654L325.786 352.966C327.139 350.577 324.679 348.459 324.168 346.683C323.827 342.864 322.108 343.405 320.677 342.661L320.699 342.654ZM324.659 340.188C324.317 341.914 325.727 347.837 327.427 344.649C327.562 342.192 326.319 341.204 324.659 340.188ZM262.643 264.434C261.843 265.694 263.856 269.278 265.656 269.906C265.656 269.906 262.664 264.427 262.643 264.434ZM255.354 253.436C257.17 255.862 258.756 257.937 260.32 260.018C258.45 255.495 256.795 253.301 255.354 253.436ZM257.071 236.393C257.704 238.556 258.131 240.066 258.566 241.6C258.669 239.746 258.17 238.011 257.071 236.393ZM245.698 230.581C248.812 235.915 249.207 243.936 254.314 246.786C250.974 241.416 249.003 232.114 245.698 230.581ZM230.854 196.942C230.267 206.174 239.182 218.464 244.144 227.011C242.226 217.268 235.044 206.607 230.854 196.942ZM235.64 195.808C247.547 223.154 242.274 198.495 232.904 185.897C228.123 183.475 235.231 194.053 235.64 195.808ZM208.074 183.311L208.099 180.73C207.1 179.532 207.13 183.503 208.074 183.311ZM192.081 144.729C191.751 141.171 191.326 137.617 189.701 134.202C189.413 137.848 190.201 141.34 192.081 144.729ZM181.712 96.6552C188.501 118.608 194.293 141.724 202.545 163.615C209.036 155.736 190.528 112.585 181.712 96.6552ZM190.004 106.966C189.431 104.918 188.67 102.955 187.344 101.25C188.184 103.161 189.098 105.076 190.004 106.966ZM221.779 163.319C221.11 163.927 223.702 167.224 223.56 165.252L221.779 163.319ZM209.221 163.318C211.635 164.071 205.779 153.975 209.009 151.472C196.054 123.076 204.81 146.718 209.221 163.318ZM201.984 112.428C203.325 116.384 205.492 119.469 207.731 122.479C206.642 118.258 204.726 114.908 201.984 112.428ZM213.205 149.754C214.086 133.399 193.713 109.327 188.722 92.9367C184.875 91.2025 204.124 138.153 213.205 149.754ZM169.602 51.4113C169.157 52.5064 170.788 53.5849 170.474 52.3573C170.222 52.0122 169.898 51.7427 169.602 51.4113Z" fill="white"/>
</svg>
