<svg width="19" height="18" viewBox="0 0 19 18" fill="none" xmlns="http://www.w3.org/2000/svg">
<path d="M7.25 13C5.43333 13 3.89583 12.3708 2.6375 11.1125C1.37917 9.85417 0.75 8.31667 0.75 6.5C0.75 4.68333 1.37917 3.14583 2.6375 1.8875C3.89583 0.629167 5.43333 0 7.25 0C9.06667 0 10.6042 0.629167 11.8625 1.8875C13.1208 3.14583 13.75 4.68333 13.75 6.5C13.75 7.23333 13.6333 7.925 13.4 8.575C13.1667 9.225 12.85 9.8 12.45 10.3L18.05 15.9C18.2333 16.0833 18.325 16.3167 18.325 16.6C18.325 16.8833 18.2333 17.1167 18.05 17.3C17.8667 17.4833 17.6333 17.575 17.35 17.575C17.0667 17.575 16.8333 17.4833 16.65 17.3L11.05 11.7C10.55 12.1 9.975 12.4167 9.325 12.65C8.675 12.8833 7.98333 13 7.25 13ZM7.25 11C8.5 11 9.5625 10.5625 10.4375 9.6875C11.3125 8.8125 11.75 7.75 11.75 6.5C11.75 5.25 11.3125 4.1875 10.4375 3.3125C9.5625 2.4375 8.5 2 7.25 2C6 2 4.9375 2.4375 4.0625 3.3125C3.1875 4.1875 2.75 5.25 2.75 6.5C2.75 7.75 3.1875 8.8125 4.0625 9.6875C4.9375 10.5625 6 11 7.25 11Z" fill="white"/>
</svg>
