<svg width="174" height="46" viewBox="0 0 174 46" fill="none" xmlns="http://www.w3.org/2000/svg">
<path d="M161.998 0.506124C162.474 0.502292 162.945 0.597182 163.383 0.784798C163.82 0.972413 164.213 1.24867 164.538 1.59612C164.889 1.93217 165.168 2.33577 165.359 2.78261C165.55 3.22944 165.648 3.71027 165.648 4.19612C165.652 4.68311 165.557 5.16576 165.367 5.61453C165.178 6.06331 164.9 6.46877 164.548 6.80612C164.219 7.15061 163.824 7.42414 163.385 7.60987C162.946 7.79561 162.475 7.88962 161.998 7.88612C161.521 7.89447 161.048 7.80267 160.609 7.61663C160.169 7.4306 159.774 7.15449 159.448 6.80612C159.103 6.46587 158.83 6.05919 158.646 5.61062C158.462 5.16205 158.371 4.68088 158.378 4.19612C158.373 3.71551 158.464 3.23873 158.646 2.79391C158.828 2.34908 159.098 1.94521 159.438 1.60612C159.764 1.25387 160.161 0.973948 160.602 0.784467C161.043 0.594986 161.518 0.500161 161.998 0.506124ZM173.998 15.1361V12.8861C173.998 12.3818 173.899 11.8825 173.706 11.4166C173.513 10.9507 173.23 10.5274 172.874 10.1708C172.517 9.81426 172.094 9.53141 171.628 9.33843C171.162 9.14545 170.663 9.04612 170.158 9.04612H153.828C152.81 9.04612 151.833 9.4507 151.113 10.1708C150.393 10.891 149.988 11.8677 149.988 12.8861V21.3361H168.208V22.6161H149.988V24.8561C149.988 25.8746 150.393 26.8513 151.113 27.5714C151.833 28.2916 152.81 28.6961 153.828 28.6961H170.158C170.663 28.6961 171.162 28.5968 171.628 28.4038C172.094 28.2108 172.517 27.928 172.874 27.5714C173.23 27.2148 173.513 26.7915 173.706 26.3256C173.899 25.8597 173.998 25.3604 173.998 24.8561V16.4161H155.788V15.1361H173.998Z" fill="#231F20"/>
<path d="M7.21844 8.98633C11.2884 8.98633 13.3984 9.44633 13.3984 11.3363V13.2663H7.82844C6.33844 13.2663 5.90844 13.6663 5.90844 14.4563C5.90844 16.8063 14.4084 16.3163 14.4084 22.9263C14.4084 26.0663 12.5984 28.8563 7.09844 28.8563C3.48844 28.8563 0.648438 28.2663 0.648438 26.5063V24.5763H7.21844C8.56844 24.5763 9.21844 24.1463 9.21844 23.1963C9.21844 20.6263 0.748438 21.1163 0.748438 14.3363C0.738438 11.3363 2.72844 8.98633 7.21844 8.98633ZM16.3884 10.8763C16.3884 9.71633 16.9084 9.13633 18.0784 9.13633H24.4284C28.8984 9.13633 31.5184 11.1363 31.5184 15.1363C31.5184 19.1363 28.8984 20.7963 24.4284 20.7963H21.2884V28.7363H16.3884V10.8763ZM21.2884 13.2663V16.7763H24.0684C25.6484 16.7763 26.6484 16.4463 26.6484 15.0063C26.6484 13.5663 25.7084 13.2663 24.0884 13.2663H21.2884ZM41.3684 9.07633C42.1884 9.07633 42.5884 9.16633 42.7684 9.86633L47.3284 27.9363C47.3846 28.1859 47.4147 28.4406 47.4184 28.6963H43.4184C42.5884 28.6963 42.3484 28.6363 42.1884 27.9663L41.2484 24.0563H36.6484L35.7684 27.9663C35.6084 28.6363 35.3684 28.6963 34.5384 28.6963H30.6484C30.6541 28.4407 30.6842 28.1862 30.7384 27.9363L35.2584 9.86633C35.4384 9.16633 35.8384 9.07633 36.6584 9.07633H41.3684ZM37.4284 20.3863H40.4284L38.9584 14.1163H38.8384L37.4284 20.3863ZM49.0984 10.8763C49.0984 9.71633 49.6184 9.13633 50.7884 9.13633H57.1384C61.6084 9.13633 64.1384 11.1363 64.1384 15.0363C64.1384 17.6963 63.1384 19.4063 60.7184 20.3863L64.5384 27.8463C64.6893 28.1074 64.7846 28.3967 64.8184 28.6963H60.6484C59.7584 28.6963 59.3884 28.6963 58.9684 27.8163L55.5384 20.7563H53.9984V28.6963H49.0984V10.8763ZM53.9984 13.2663V16.7763H56.7784C58.1784 16.7763 59.2784 16.5963 59.2784 15.0363C59.2784 13.4763 58.1784 13.2663 56.7784 13.2663H53.9984ZM71.2684 18.0963L76.1584 10.0263C76.6184 9.22633 76.8884 9.13633 77.5284 9.13633H82.1184C82.1246 9.44176 82.0374 9.74181 81.8684 9.99633L76.2484 18.5763L82.1484 27.8463C82.3134 28.1002 82.4067 28.3938 82.4184 28.6963H77.9884C77.0684 28.6963 76.7984 28.6363 76.2784 27.8163L71.2784 19.8163V28.7363H66.3784V10.8763C66.3784 9.71633 66.8984 9.13633 68.0584 9.13633H71.2684V18.0963ZM94.2684 9.09633C95.0884 9.09633 95.4884 9.18633 95.6684 9.88633L100.228 27.9563C100.285 28.2059 100.315 28.4606 100.318 28.7163H96.3184C95.4984 28.7163 95.2484 28.6563 95.0984 27.9863L94.0984 24.0763H89.5784L88.6484 27.9663C88.4984 28.6363 88.2584 28.6963 87.4284 28.6963H83.4284C83.4341 28.4407 83.4642 28.1862 83.5184 27.9363L88.1384 9.86633C88.3284 9.16633 88.7184 9.07633 89.5484 9.07633L94.2684 9.09633ZM90.2684 20.4063H93.2684L91.7984 14.1363H91.7484L90.2684 20.4063ZM107.948 8.98633C112.018 8.98633 114.128 9.44633 114.128 11.3363V13.2663H108.558C107.068 13.2663 106.638 13.6663 106.638 14.4563C106.638 16.8063 115.128 16.3163 115.128 22.9263C115.128 26.0663 113.328 28.8563 107.828 28.8563C104.218 28.8563 101.378 28.2663 101.378 26.4963V24.5763H107.948C109.298 24.5763 109.948 24.1463 109.948 23.1963C109.948 20.6263 101.478 21.1163 101.478 14.3363C101.468 11.3363 103.458 8.98633 107.948 8.98633ZM123.078 8.98633C127.148 8.98633 129.258 9.44633 129.258 11.3363V13.2663H123.698C122.198 13.2663 121.768 13.6663 121.768 14.4563C121.768 16.8063 130.268 16.3163 130.268 22.9263C130.268 26.0663 128.458 28.8563 122.958 28.8563C119.348 28.8563 116.508 28.2663 116.508 26.4963V24.5763H123.078C124.428 24.5763 125.078 24.1463 125.078 23.1963C125.078 20.6263 116.608 21.1163 116.608 14.3363C116.648 11.3363 118.588 8.98633 123.078 8.98633ZM132.258 10.8763C132.258 9.71633 132.778 9.13633 133.938 9.13633H144.648V11.5563C144.681 11.7921 144.658 12.0323 144.581 12.2576C144.504 12.4829 144.376 12.6869 144.205 12.8533C144.035 13.0197 143.828 13.1437 143.601 13.2155C143.374 13.2872 143.133 13.3046 142.898 13.2663H137.148V16.7763H143.568V20.7763H137.148V24.5963H144.788V27.0063C144.821 27.2411 144.798 27.4803 144.722 27.7047C144.645 27.9291 144.517 28.1325 144.348 28.2986C144.179 28.4648 143.974 28.5891 143.748 28.6616C143.522 28.7341 143.283 28.7529 143.048 28.7163H133.938C132.778 28.7163 132.258 28.1363 132.258 26.9763V10.8763ZM7.21844 8.98633C11.2884 8.98633 13.3984 9.44633 13.3984 11.3363V13.2663H7.82844C6.33844 13.2663 5.90844 13.6663 5.90844 14.4563C5.90844 16.8063 14.4084 16.3163 14.4084 22.9263C14.4084 26.0663 12.5984 28.8563 7.09844 28.8563C3.48844 28.8563 0.648438 28.2663 0.648438 26.5063V24.5763H7.21844C8.56844 24.5763 9.21844 24.1463 9.21844 23.1963C9.21844 20.6263 0.748438 21.1163 0.748438 14.3363C0.738438 11.3363 2.72844 8.98633 7.21844 8.98633ZM16.3884 10.8763C16.3884 9.71633 16.9084 9.13633 18.0784 9.13633H24.4284C28.8984 9.13633 31.5184 11.1363 31.5184 15.1363C31.5184 19.1363 28.8984 20.7963 24.4284 20.7963H21.2884V28.7363H16.3884V10.8763ZM21.2884 13.2663V16.7763H24.0684C25.6484 16.7763 26.6484 16.4463 26.6484 15.0063C26.6484 13.5663 25.7084 13.2663 24.0884 13.2663H21.2884ZM41.3684 9.07633C42.1884 9.07633 42.5884 9.16633 42.7684 9.86633L47.3284 27.9363C47.3846 28.1859 47.4147 28.4406 47.4184 28.6963H43.4184C42.5884 28.6963 42.3484 28.6363 42.1884 27.9663L41.2484 24.0563H36.6484L35.7684 27.9663C35.6084 28.6363 35.3684 28.6963 34.5384 28.6963H30.6484C30.6541 28.4407 30.6842 28.1862 30.7384 27.9363L35.2584 9.86633C35.4384 9.16633 35.8384 9.07633 36.6584 9.07633H41.3684ZM37.4284 20.3863H40.4284L38.9684 14.1163H38.8384L37.4284 20.3863ZM49.1084 10.8763C49.1084 9.71633 49.6184 9.13633 50.7884 9.13633H57.1384C61.6084 9.13633 64.1384 11.1363 64.1384 15.0363C64.1384 17.6963 63.1384 19.4063 60.7184 20.3863L64.5384 27.8463C64.6893 28.1074 64.7846 28.3967 64.8184 28.6963H60.6484C59.7584 28.6963 59.3984 28.6963 58.9684 27.8163L55.5384 20.7563H53.9984V28.6963H49.1084V10.8763ZM53.9984 13.2663V16.7763H56.7784C58.1784 16.7763 59.2784 16.5963 59.2784 15.0363C59.2784 13.4763 58.1784 13.2663 56.7784 13.2663H53.9984ZM71.2684 18.0963L76.1584 10.0263C76.6184 9.22633 76.8884 9.13633 77.5284 9.13633H82.1184C82.1239 9.44026 82.0405 9.73917 81.8784 9.99633L76.2484 18.5763L82.1484 27.8463C82.3165 28.0994 82.4132 28.393 82.4284 28.6963H77.9884C77.0784 28.6963 76.7984 28.6363 76.2784 27.8163L71.2784 19.8163V28.7363H66.3784V10.8763C66.3784 9.71633 66.8984 9.13633 68.0584 9.13633H71.2684V18.0963ZM94.2684 9.09633C95.0884 9.09633 95.4884 9.18633 95.6684 9.88633L100.228 27.9563C100.285 28.2059 100.315 28.4606 100.318 28.7163H96.3184C95.4984 28.7163 95.2584 28.6563 95.0984 27.9863L94.0984 24.0763H89.5784L88.6484 27.9663C88.4984 28.6363 88.2584 28.6963 87.4284 28.6963H83.4284C83.4341 28.4407 83.4642 28.1862 83.5184 27.9363L88.1384 9.86633C88.3284 9.16633 88.7184 9.07633 89.5484 9.07633L94.2684 9.09633ZM90.2684 20.4063H93.2684L91.7984 14.1363H91.7484L90.2684 20.4063ZM107.948 8.98633C112.018 8.98633 114.128 9.44633 114.128 11.3363V13.2663H108.558C107.068 13.2663 106.638 13.6663 106.638 14.4563C106.638 16.8063 115.138 16.3163 115.138 22.9263C115.138 26.0663 113.328 28.8563 107.828 28.8563C104.218 28.8563 101.378 28.2663 101.378 26.4963V24.5763H107.948C109.298 24.5763 109.948 24.1463 109.948 23.1963C109.948 20.6263 101.478 21.1163 101.478 14.3363C101.468 11.3363 103.458 8.98633 107.948 8.98633ZM123.088 8.98633C127.148 8.98633 129.258 9.44633 129.258 11.3363V13.2663H123.698C122.198 13.2663 121.768 13.6663 121.768 14.4563C121.768 16.8063 130.268 16.3163 130.268 22.9263C130.268 26.0663 128.468 28.8563 122.958 28.8563C119.358 28.8563 116.508 28.2663 116.508 26.4963V24.5763H123.088C124.428 24.5763 125.088 24.1463 125.088 23.1963C125.088 20.6263 116.628 21.1163 116.628 14.3363C116.648 11.3363 118.588 8.98633 123.088 8.98633ZM132.258 10.8763C132.258 9.71633 132.778 9.13633 133.938 9.13633H144.648V11.5563C144.681 11.7911 144.658 12.0303 144.582 12.2547C144.505 12.4791 144.377 12.6825 144.208 12.8486C144.039 13.0148 143.834 13.1391 143.608 13.2116C143.382 13.2841 143.143 13.3029 142.908 13.2663H137.148V16.7763H143.568V20.7763H137.148V24.5963H144.788V27.0063C144.821 27.2411 144.798 27.4803 144.722 27.7047C144.645 27.9291 144.517 28.1325 144.348 28.2986C144.179 28.4648 143.974 28.5891 143.748 28.6616C143.522 28.7341 143.283 28.7529 143.048 28.7163H133.938C132.778 28.7163 132.258 28.1363 132.258 26.9763V10.8763ZM0.648438 34.0463C0.648438 33.4463 0.858438 33.1263 1.43844 33.1263H4.64844C7.27844 33.1263 8.64844 34.2163 8.64844 36.3663C8.68933 36.9576 8.53007 37.5454 8.19631 38.0352C7.86255 38.5249 7.37369 38.8881 6.80844 39.0663C7.49051 39.1992 8.09984 39.5784 8.52032 40.1317C8.94079 40.685 9.14301 41.3736 9.08844 42.0663C9.08844 44.2763 7.68844 45.4263 5.08844 45.4263H1.43844C0.858438 45.3963 0.648438 45.0663 0.648438 44.5063V34.0463ZM4.64844 38.3363C5.92844 38.3363 6.79844 37.9363 6.79844 36.5363C6.79844 35.1363 5.85844 34.7163 4.48844 34.7163H2.44844V38.3363H4.64844ZM4.93844 43.8063C6.29844 43.8063 7.23844 43.3663 7.23844 41.8063C7.23844 40.2463 6.29844 39.8063 4.93844 39.8063H2.44844V43.8063H4.93844ZM16.7284 45.3963C16.6167 45.4142 16.5023 45.4059 16.3943 45.372C16.2863 45.3381 16.1877 45.2796 16.1062 45.201C16.0248 45.1224 15.9627 45.026 15.9249 44.9193C15.8871 44.8127 15.8746 44.6987 15.8884 44.5863V44.2863C15.5528 44.6617 15.1434 44.9638 14.6857 45.1738C14.228 45.3837 13.7319 45.4969 13.2284 45.5063C12.8632 45.5411 12.4947 45.497 12.148 45.377C11.8013 45.2569 11.4844 45.0638 11.2189 44.8106C10.9533 44.5574 10.7453 44.25 10.609 43.9094C10.4726 43.5688 10.411 43.2028 10.4284 42.8363C10.4284 40.4163 12.9584 39.8363 15.9184 39.6763V38.7663C15.9184 37.4663 15.0284 37.1063 13.8584 37.1063H11.0984V36.6063C11.0984 35.7563 12.0984 35.7263 14.0984 35.7263C16.3084 35.7263 17.6084 36.6763 17.6084 38.7263V45.4363L16.7284 45.3963ZM15.8884 40.7563C13.2584 40.8163 12.1984 41.3863 12.1984 42.6163C12.1984 43.6163 12.9484 44.0563 13.9284 44.0563C14.6698 44.0492 15.3823 43.7678 15.9284 43.2663L15.8884 40.7563ZM19.8884 45.3963V35.8063H20.7584C21.3684 35.8063 21.6184 36.1363 21.6184 36.5963V36.9163C21.9524 36.5352 22.3648 36.2306 22.8273 36.0235C23.2899 35.8164 23.7917 35.7116 24.2984 35.7163C26.1584 35.7163 27.0784 36.8663 27.0784 38.6463V45.3963H25.3784V38.7263C25.3784 37.5863 24.7284 37.1063 23.6284 37.1063C22.8888 37.1399 22.183 37.4257 21.6284 37.9163V45.3963H19.8884ZM31.1084 40.0263L34.6584 36.1863C34.7358 36.0643 34.8441 35.9648 34.9723 35.8981C35.1005 35.8314 35.2441 35.7997 35.3884 35.8063H36.8584C36.8571 35.9472 36.8037 36.0825 36.7084 36.1863L32.8384 40.2763L36.7284 45.0163C36.7768 45.0661 36.8136 45.126 36.8361 45.1917C36.8585 45.2574 36.8662 45.3273 36.8584 45.3963H35.3384C34.8984 45.3963 34.7684 45.2063 34.4984 44.8563L31.1584 40.7763V45.3963H29.4284V33.6363C29.4284 33.0663 29.6484 32.7363 30.2184 32.7363H31.1584L31.1084 40.0263Z" fill="#231F20"/>
</svg>
