<svg width="63" height="80" viewBox="0 0 63 80" fill="none" xmlns="http://www.w3.org/2000/svg">
<path d="M58.5731 7.49227L26.8315 0.133693C23.9807 -0.525549 21.1388 1.24728 20.4796 4.09806L18.5108 12.6148H5.21009C2.51966 12.6148 0.328125 14.7974 0.328125 17.4967V75.127C0.328125 77.8174 2.51075 80.009 5.21009 80.009H38.6177C41.3081 80.009 43.4996 77.8263 43.4996 75.127V73.1671C46.3059 73.7373 49.0675 71.9822 49.7179 69.176L62.5375 13.8442C63.1967 10.9934 61.4239 8.15151 58.5731 7.49227Z" fill="#FF6130"/>
<path d="M10.2378 36.7478H10.3981L14.701 23.2511H18.8614L12.7322 41.0239H7.8948L1.76562 23.2422H5.93489L10.2289 36.7388L10.2378 36.7478Z" fill="white"/>
<path d="M20.793 24.0982C20.793 23.0737 21.6927 22.2363 22.7885 22.2363C23.8843 22.2363 24.793 23.0737 24.793 24.0982C24.793 25.1227 23.8932 25.9691 22.7885 25.9691C21.6838 25.9691 20.793 25.1317 20.793 24.0982ZM20.9355 27.6884H24.6326V41.0158H20.9355V27.6884Z" fill="white"/>
<path d="M27.6484 23.2433H31.3455V29.9248H31.4614C31.9602 28.8379 33.0204 27.5105 35.2565 27.5105C38.1785 27.5105 40.6551 29.7823 40.6551 34.3613C40.6551 38.9404 38.2854 41.221 35.2475 41.221C33.0916 41.221 31.9781 39.9827 31.4614 38.8691H31.2921V41.0072H27.6484V23.2344V23.2433ZM34.0716 38.2901C35.889 38.2901 36.8778 36.6776 36.8778 34.3524C36.8778 32.0273 35.9068 30.4593 34.0716 30.4593C32.2364 30.4593 31.2654 31.9738 31.2654 34.3524C31.2654 36.731 32.2899 38.2901 34.0716 38.2901Z" fill="white"/>
<path d="M42.5625 34.4149C42.5625 30.299 45.1015 27.5195 49.0302 27.5195C52.5491 27.5195 55.293 29.7556 55.293 34.2901V35.3057H46.2151C46.2151 37.3013 47.3821 38.5218 49.2351 38.5218C50.4645 38.5218 51.4177 37.9961 51.7919 36.9806L55.2128 37.2033C54.6961 39.6799 52.469 41.2835 49.1727 41.2835C45.0658 41.2835 42.5625 38.6465 42.5625 34.4238V34.4149ZM51.8097 33.0073C51.8097 31.4215 50.6872 30.2723 49.0837 30.2723C47.4801 30.2723 46.2863 31.4839 46.2151 33.0073H51.8097Z" fill="white"/>
<path d="M10.7348 61.3097C5.99535 61.3097 2.41406 57.9689 2.41406 52.1783C2.41406 46.3876 5.99535 43.0469 10.7348 43.0469C15.4742 43.0469 19.0555 46.3609 19.0555 52.1783C19.0555 57.9957 15.4475 61.3097 10.7348 61.3097ZM10.7348 46.3787C7.99981 46.3787 6.22698 48.4188 6.22698 52.1872C6.22698 55.9556 8.00872 57.9956 10.7348 57.9956C13.4608 57.9956 15.2426 55.9556 15.2426 52.1872C15.2426 48.4188 13.4519 46.3787 10.7348 46.3787Z" fill="white"/>
<path d="M8.45267 74.94C7.37472 74.9489 6.43931 74.744 5.63753 74.3342C4.84465 73.9155 4.22996 73.3186 3.79343 72.5346C3.3569 71.7507 3.13419 70.8153 3.12528 69.7284C3.11637 68.6861 3.32127 67.7596 3.74889 66.9756C4.16759 66.1827 4.77338 65.5591 5.53953 65.1137C6.31459 64.6683 7.22327 64.4366 8.2745 64.4277C9.04065 64.4277 9.74443 64.5346 10.3769 64.7752C11.0095 65.0157 11.5529 65.3542 12.0072 65.8086C12.4616 66.254 12.809 66.8064 13.0585 67.4389C13.3079 68.0803 13.4326 68.8019 13.4415 69.5948V70.4767L4.26559 70.5569L4.24777 68.5168L11.7043 68.4545L9.98497 68.8732C9.98497 68.4723 9.9137 68.1337 9.78898 67.8576C9.66425 67.5814 9.47717 67.3676 9.23664 67.2251C8.9961 67.0825 8.69321 67.0113 8.34577 67.0113C7.99833 67.0113 7.70434 67.0914 7.46381 67.2429C7.22327 67.3943 7.0451 67.6081 6.92038 67.8843C6.79566 68.1605 6.7333 68.499 6.7422 68.8999L6.76002 70.4144C6.76002 70.842 6.8402 71.1983 6.98274 71.4923C7.12528 71.7863 7.33018 71.9912 7.59744 72.1337C7.8647 72.2763 8.16759 72.3476 8.52394 72.3386C8.77339 72.3386 9.00501 72.303 9.20991 72.2317C9.41481 72.1605 9.59298 72.0536 9.74443 71.9199C9.88697 71.7863 10.0028 71.626 10.0741 71.4389L13.3435 71.7863C13.1921 72.4099 12.8892 72.9533 12.4527 73.4255C12.0072 73.8977 11.4549 74.2629 10.7778 74.5213C10.1008 74.7796 9.33463 74.9133 8.46158 74.9222L8.45267 74.94Z" fill="white"/>
<path d="M18.876 74.9138C18.1187 74.9138 17.4327 74.7178 16.8181 74.3258C16.2034 73.9339 15.7045 73.3548 15.3481 72.5708C14.9829 71.7958 14.8047 70.8336 14.8047 69.6755C14.8047 68.4817 15.0007 67.5018 15.3838 66.7356C15.7668 65.9695 16.2657 65.3904 16.8804 65.0163C17.4951 64.6421 18.1544 64.455 18.867 64.4639C19.357 64.4639 19.7846 64.5441 20.1588 64.7045C20.533 64.8648 20.8448 65.0786 21.1031 65.3637C21.3615 65.6399 21.5664 65.9517 21.7089 66.2991L21.7535 63.2969V55.8047L25.4595 55.8136L25.4238 74.7891H21.7713V73.1232H21.7C21.5486 73.4884 21.3437 73.8002 21.0853 74.0675C20.827 74.3348 20.5062 74.5396 20.1321 74.7C19.7579 74.8515 19.3392 74.9316 18.867 74.9227L18.876 74.9138ZM20.1944 72.0719C20.533 72.0719 20.827 71.974 21.0675 71.778C21.308 71.582 21.504 71.3058 21.6466 70.9495C21.7891 70.5931 21.8515 70.1744 21.8604 69.6844C21.8604 69.1855 21.798 68.7579 21.6555 68.4016C21.5129 68.0452 21.3258 67.7691 21.0853 67.5731C20.8359 67.3771 20.5508 67.2791 20.2123 67.2791C19.8737 67.2791 19.5887 67.3771 19.3481 67.5641C19.1076 67.7601 18.9294 68.0274 18.7958 68.3838C18.6711 68.7401 18.6087 69.1677 18.5998 69.6666C18.5998 70.1566 18.6621 70.5842 18.7869 70.9405C18.9116 71.2969 19.0987 71.5731 19.3303 71.769C19.5708 71.9561 19.8559 72.0541 20.1944 72.0541V72.0719Z" fill="white"/>
<path d="M30.6901 74.9395C29.9685 74.9395 29.336 74.7703 28.8104 74.4407C28.2848 74.111 27.875 73.6567 27.5988 73.0776C27.3137 72.4986 27.1712 71.8304 27.1801 71.0732L27.2068 64.6055L30.9128 64.6233L30.8861 70.2981C30.8861 70.8059 31.0108 71.1979 31.2603 71.4919C31.5097 71.7859 31.866 71.9284 32.3293 71.9284C32.6322 71.9284 32.8905 71.866 33.1133 71.7324C33.3271 71.5988 33.4963 71.4117 33.6211 71.1712C33.7458 70.9217 33.8081 70.6277 33.8081 70.2892L33.8349 64.6411L37.532 64.6589L37.4874 74.8326L33.9774 74.8148L33.9329 72.1689H34.1289C33.8794 72.9618 33.4874 73.6211 32.944 74.1556C32.4006 74.6901 31.6611 74.9574 30.7079 74.9485L30.6901 74.9395Z" fill="white"/>
<path d="M25.4588 61.0592H21.7617V47.7318H25.2807V50.0837H25.441C26.0379 48.5335 27.4722 47.5625 29.4499 47.5625C32.2294 47.5625 34.0468 49.469 34.0468 52.5781V61.0592H30.3497V53.2373C30.3497 51.607 29.4677 50.636 27.98 50.636C26.4922 50.636 25.4677 51.6427 25.4588 53.3621V61.0681V61.0592Z" fill="white"/>
</svg>
