<svg width="80" height="107" viewBox="0 0 80 107" fill="none" xmlns="http://www.w3.org/2000/svg">
<path d="M73.8131 9.49341L33.616 0.175638C32.755 -0.0270723 31.8625 -0.0575378 30.9897 0.0859944C30.1169 0.229527 29.2811 0.544223 28.5304 1.01198C27.7797 1.47973 27.1289 2.09131 26.6155 2.81153C26.102 3.53174 25.7361 4.34638 25.5387 5.20856L23.0388 15.9846H6.18344C4.54349 15.9846 2.97071 16.6361 1.81109 17.7957C0.651468 18.9553 0 20.5281 0 22.168L0 95.2094C0 96.8493 0.651468 98.4221 1.81109 99.5817C2.97071 100.741 4.54349 101.393 6.18344 101.393H48.5253C50.1653 101.393 51.7381 100.741 52.8977 99.5817C54.0573 98.4221 54.7088 96.8493 54.7088 95.2094V92.7237C56.4215 93.0764 58.2043 92.7455 59.6764 91.8015C61.1484 90.8576 62.1931 89.3755 62.5872 87.6718L78.8365 17.547C79.0359 16.6884 79.064 15.7988 78.9194 14.9293C78.7748 14.0597 78.4603 13.2272 77.9937 12.4792C77.5272 11.7313 76.9179 11.0826 76.2005 10.5703C75.4832 10.058 74.6719 9.69204 73.8131 9.49341Z" fill="#F37021"/>
<path d="M13.6935 47.4175H13.9066L19.3562 30.3018H24.6211L16.8752 52.8292H10.7202L2.96484 30.3018H8.25344L13.6935 47.4175Z" fill="white"/>
<path d="M27.0819 31.3859C27.0477 30.8778 27.1672 30.371 27.4249 29.9317C27.6826 29.4923 28.0665 29.1406 28.5267 28.9224C28.987 28.7042 29.5022 28.6295 30.0055 28.7081C30.5087 28.7867 30.9767 29.0149 31.3485 29.363C31.7203 29.7112 31.9787 30.1631 32.0902 30.6601C32.2017 31.1571 32.161 31.6762 31.9735 32.1497C31.786 32.6233 31.4603 33.0295 31.0388 33.3155C30.6173 33.6015 30.1195 33.754 29.6102 33.7533C28.9619 33.7712 28.3328 33.5326 27.8594 33.0894C27.386 32.6461 27.1066 32.034 27.0819 31.3859ZM27.2571 35.9407H31.9396V52.8291H27.2571V35.9407Z" fill="white"/>
<path d="M35.7656 30.3018H40.4529V38.7768H40.595C40.986 37.8359 41.6567 37.038 42.5163 36.4909C43.3758 35.9439 44.3827 35.6741 45.4006 35.7182C49.1031 35.7182 52.2374 38.6016 52.2374 44.4063C52.2374 50.0547 49.2357 53.1038 45.3912 53.1038C44.384 53.1493 43.3866 52.8887 42.5305 52.3562C41.6743 51.8238 40.9995 51.0445 40.595 50.121H40.3866V52.8292H35.7656V30.3018ZM43.9045 49.3729C46.2008 49.3729 47.4555 47.3275 47.4555 44.3778C47.4555 41.4282 46.2244 39.4396 43.9045 39.4396C41.5845 39.4396 40.3535 41.3666 40.3535 44.3778C40.3535 47.3891 41.665 49.3776 43.9045 49.3776V49.3729Z" fill="white"/>
<path d="M54.6699 44.4589C54.6699 39.2508 57.8942 35.7188 62.8609 35.7188C67.3256 35.7188 70.8008 38.5595 70.8008 44.2979V45.581H59.3004C59.3004 48.0951 60.7871 49.6481 63.126 49.6481C64.6884 49.6481 65.8958 48.9757 66.3692 47.6927L70.7014 47.9767C70.0433 51.1111 67.2262 53.1422 63.0502 53.1422C57.8469 53.1564 54.6699 49.8138 54.6699 44.4589ZM66.3929 42.6787C66.4137 42.2194 66.3387 41.7609 66.1727 41.3322C66.0067 40.9036 65.7534 40.5141 65.4288 40.1886C65.1042 39.8631 64.7154 39.6087 64.2872 39.4415C63.8589 39.2744 63.4006 39.1981 62.9413 39.2177C62.0009 39.1985 61.0909 39.5513 60.4091 40.1994C59.7273 40.8475 59.3289 41.7385 59.3004 42.6787H66.3929Z" fill="white"/>
<path d="M14.3312 78.5432C8.32763 78.5432 3.78711 74.3341 3.78711 66.9764C3.78711 59.6188 8.32763 55.3955 14.3312 55.3955C20.3347 55.3955 24.8752 59.5951 24.8752 66.9622C24.8752 74.3293 20.3015 78.5432 14.3312 78.5432ZM14.3312 59.6046C10.8701 59.6046 8.61644 62.1897 8.61644 66.9622C8.61644 71.7348 10.8891 74.3341 14.3312 74.3341C17.7732 74.3341 20.0506 71.7537 20.0506 66.9812C20.0506 62.2087 17.7827 59.6188 14.3312 59.6188V59.6046Z" fill="white"/>
<path d="M32.997 78.236H28.3145V61.3475H32.7792V64.3256H32.9733C33.7356 62.356 35.549 61.125 38.0536 61.125C41.5715 61.125 43.882 63.5444 43.882 67.4836V78.236H39.1994V68.2932C39.1994 66.2242 38.0773 64.979 36.1976 64.979C34.318 64.979 33.0065 66.2573 32.997 68.4353V78.236Z" fill="white"/>
<path d="M37.1723 106.43C35.0215 106.468 32.8987 105.939 31.0173 104.896C29.1701 103.841 27.671 102.27 26.704 100.375C25.7894 98.4761 25.3145 96.3958 25.3145 94.2883C25.3145 92.1809 25.7894 90.1006 26.704 88.202C27.6474 86.3329 29.1 84.7687 30.8942 83.6898C32.7409 82.5946 34.855 82.0325 37.0019 82.0659C38.4882 82.0631 39.9627 82.3311 41.353 82.8565C42.8192 83.4053 44.1485 84.2662 45.2489 85.3797C46.3493 86.4932 47.1945 87.8326 47.7258 89.3051C48.2843 90.8548 48.5601 92.4921 48.5402 94.1392V95.2234C48.5407 95.752 48.4527 96.2769 48.2798 96.7764C48.3935 97.4464 48.3596 98.1331 48.1804 98.7886C47.7555 100.365 46.9415 101.809 45.813 102.988C44.7159 104.142 43.3727 105.034 41.8833 105.597C40.3783 106.165 38.7808 106.447 37.1723 106.43Z" fill="#231F20"/>
<path d="M56.2067 103.547C55.781 103.548 55.3573 103.49 54.9473 103.376L51.2543 102.358C50.826 102.241 50.4164 102.064 50.0375 101.833H49.7155C48.8237 101.826 47.9368 101.7 47.0783 101.459C45.1477 100.947 43.4114 99.8767 42.088 98.381C40.7671 96.8713 39.9018 95.0177 39.5928 93.0356C39.2791 90.9776 39.4246 88.8757 40.0189 86.8806C40.5327 84.8351 41.504 82.9329 42.8597 81.3174C44.1545 79.7903 45.8551 78.661 47.7648 78.0599C49.4732 77.5375 51.289 77.4738 53.0297 77.8753L53.0582 77.7759C53.3327 76.7768 53.9274 75.8955 54.7509 75.2669C55.5745 74.6383 56.5816 74.2972 57.6176 74.2959C58.0435 74.2963 58.4672 74.3552 58.877 74.4711L62.6221 75.5032C63.2219 75.6676 63.7833 75.9486 64.2745 76.33C64.7656 76.7114 65.1768 77.1858 65.4846 77.7262C65.7923 78.2665 65.9906 78.8622 66.0682 79.4792C66.1457 80.0962 66.1009 80.7224 65.9364 81.3221L60.7756 100.052C60.5033 101.056 59.9083 101.941 59.0826 102.573C58.2568 103.204 57.2462 103.546 56.2067 103.547Z" fill="#231F20"/>
<path d="M66.7825 94.0016C65.0298 94.0252 63.3029 93.5771 61.7828 92.7043C60.2269 91.8009 58.9758 90.4541 58.1892 88.8361C57.4354 87.2668 57.0561 85.544 57.0812 83.8032V74.6653C57.0812 73.4096 57.5801 72.2054 58.468 71.3174C59.3559 70.4295 60.5602 69.9307 61.8159 69.9307H65.703C66.6733 69.9301 67.6204 70.2276 68.416 70.7829C69.2088 70.2254 70.155 69.9276 71.1242 69.9307H75.0255C76.2812 69.9307 77.4855 70.4295 78.3734 71.3174C79.2614 72.2054 79.7602 73.4096 79.7602 74.6653V89.0539C79.7602 90.3096 79.2614 91.5139 78.3734 92.4018C77.4855 93.2897 76.2812 93.7885 75.0255 93.7885H71.3088C70.8002 93.7916 70.2946 93.71 69.8127 93.5471C68.8317 93.8523 67.8099 94.0055 66.7825 94.0016Z" fill="#231F20"/>
<path d="M37.1723 106.43C35.0215 106.468 32.8987 105.939 31.0173 104.896C29.1701 103.841 27.671 102.27 26.704 100.375C25.7894 98.4761 25.3145 96.3958 25.3145 94.2883C25.3145 92.1809 25.7894 90.1006 26.704 88.202C27.6474 86.3329 29.1 84.7687 30.8942 83.6898C32.7409 82.5946 34.855 82.0325 37.0019 82.0659C38.4882 82.0631 39.9627 82.3311 41.353 82.8565C42.8192 83.4053 44.1485 84.2662 45.2489 85.3797C46.3493 86.4932 47.1945 87.8326 47.7258 89.3051C48.2843 90.8548 48.5601 92.4921 48.5402 94.1392V95.2234C48.5407 95.752 48.4527 96.2769 48.2798 96.7764C48.3935 97.4464 48.3596 98.1331 48.1804 98.7886C47.7555 100.365 46.9415 101.809 45.813 102.988C44.7159 104.142 43.3727 105.034 41.8833 105.597C40.3783 106.165 38.7808 106.447 37.1723 106.43Z" fill="#3E6FB7"/>
<path d="M56.2067 103.547C55.781 103.548 55.3573 103.49 54.9473 103.376L51.2543 102.358C50.826 102.241 50.4164 102.064 50.0375 101.833H49.7155C48.8237 101.826 47.9368 101.7 47.0783 101.459C45.1477 100.947 43.4114 99.8767 42.088 98.381C40.7671 96.8713 39.9018 95.0177 39.5928 93.0356C39.2791 90.9776 39.4246 88.8757 40.0189 86.8806C40.5327 84.8351 41.504 82.9329 42.8597 81.3174C44.1545 79.7903 45.8551 78.661 47.7648 78.0599C49.4732 77.5375 51.289 77.4738 53.0297 77.8753L53.0582 77.7759C53.3327 76.7768 53.9274 75.8955 54.7509 75.2669C55.5745 74.6383 56.5816 74.2972 57.6176 74.2959C58.0435 74.2963 58.4672 74.3552 58.877 74.4711L62.6221 75.5032C63.2219 75.6676 63.7833 75.9486 64.2745 76.33C64.7656 76.7114 65.1768 77.1858 65.4846 77.7262C65.7923 78.2665 65.9906 78.8622 66.0682 79.4792C66.1457 80.0962 66.1009 80.7224 65.9364 81.3221L60.7756 100.052C60.5033 101.056 59.9083 101.941 59.0826 102.573C58.2568 103.204 57.2462 103.546 56.2067 103.547Z" fill="#3E6FB7"/>
<path d="M66.7825 94.0016C65.0298 94.0252 63.3029 93.5771 61.7828 92.7043C60.2269 91.8009 58.9758 90.4541 58.1892 88.8361C57.4354 87.2668 57.0561 85.544 57.0812 83.8032V74.6653C57.0812 73.4096 57.5801 72.2054 58.468 71.3174C59.3559 70.4295 60.5602 69.9307 61.8159 69.9307H65.703C66.6733 69.9301 67.6204 70.2276 68.416 70.7829C69.2088 70.2254 70.155 69.9276 71.1242 69.9307H75.0255C76.2812 69.9307 77.4855 70.4295 78.3734 71.3174C79.2614 72.2054 79.7602 73.4096 79.7602 74.6653V89.0539C79.7602 90.3096 79.2614 91.5139 78.3734 92.4018C77.4855 93.2897 76.2812 93.7885 75.0255 93.7885H71.3088C70.8002 93.7916 70.2946 93.71 69.8127 93.5471C68.8317 93.8523 67.8099 94.0055 66.7825 94.0016Z" fill="#3E6FB7"/>
<path d="M37.0483 101.696C35.6928 101.732 34.3499 101.427 33.1423 100.811C32.0619 100.238 31.1755 99.3585 30.595 98.2824C29.9714 97.0753 29.6636 95.7299 29.7002 94.3716C29.6711 93.0399 29.9789 91.7223 30.595 90.5413C31.1807 89.4595 32.0649 88.5688 33.1423 87.9751C34.3044 87.3477 35.6096 87.0329 36.93 87.0613C37.9284 87.0536 38.9193 87.2335 39.8513 87.5916C40.6955 87.8983 41.4641 88.3827 42.1049 89.012C42.7331 89.6684 43.217 90.449 43.5253 91.3036C43.8782 92.266 44.0516 93.2851 44.0367 94.3101V95.5411H31.2531V92.7003H41.6646L39.2547 93.2732C39.2701 92.787 39.183 92.3031 38.999 91.8528C38.8458 91.4854 38.5808 91.1756 38.2415 90.9674C37.86 90.7655 37.435 90.66 37.0034 90.66C36.5718 90.66 36.1467 90.7655 35.7653 90.9674C35.4267 91.1777 35.1607 91.4867 35.003 91.8528C34.8133 92.3016 34.7228 92.7861 34.7378 93.2732V95.3754C34.7226 95.8923 34.8262 96.4058 35.0409 96.8763C35.2228 97.2583 35.5189 97.5743 35.8884 97.7806C36.285 97.9892 36.7282 98.0934 37.1762 98.0836C37.498 98.0852 37.8179 98.034 38.1231 97.9321C38.3992 97.8456 38.6541 97.702 38.8712 97.5107C39.0775 97.3307 39.2395 97.1054 39.3446 96.8526L43.8852 97.3781C43.6668 98.2354 43.2277 99.0206 42.6116 99.6555C41.9575 100.331 41.1574 100.848 40.2726 101.166C39.2386 101.535 38.1463 101.715 37.0483 101.696Z" fill="white"/>
<path d="M48.0437 95.7497C47.173 95.5119 46.389 95.0287 45.7853 94.3577C45.1537 93.6296 44.7489 92.7327 44.6205 91.7774C44.4592 90.5576 44.5708 89.3173 44.9472 88.1459C45.2443 86.9282 45.816 85.7945 46.6186 84.8317C47.2405 84.0975 48.0633 83.5611 48.9859 83.2882C49.8201 83.0514 50.7037 83.0514 51.5379 83.2882C52.0684 83.4274 52.5647 83.6739 52.9961 84.0126C53.3705 84.3102 53.6785 84.6827 53.9004 85.1063C54.1168 85.5196 54.2563 85.9688 54.3124 86.432H54.3692L56.1352 80.2012L60.5289 81.4464L55.8985 97.7714L51.5473 96.5357L52.106 94.5613H52.0208C51.7345 94.9321 51.3792 95.244 50.9744 95.4799C50.5597 95.7116 50.1023 95.8566 49.6298 95.906C49.096 95.9598 48.5568 95.9067 48.0437 95.7497ZM50.5578 92.8048C50.9326 92.9212 51.3362 92.9027 51.6988 92.7527C52.0781 92.5763 52.4046 92.3037 52.6458 91.962C52.9535 91.5329 53.1813 91.0517 53.3181 90.5416C53.4753 90.0269 53.5379 89.4879 53.5027 88.9508C53.4763 88.5296 53.3355 88.1237 53.0956 87.7766C52.8637 87.4601 52.5289 87.2341 52.1486 87.1374C51.7787 87.0208 51.3794 87.0393 51.0218 87.1895C50.6361 87.3578 50.3072 87.634 50.0749 87.9849C49.7735 88.4297 49.5508 88.9229 49.4167 89.4432C49.2593 89.955 49.1889 90.4895 49.2084 91.0246C49.2211 91.4403 49.3507 91.844 49.5825 92.1893C49.8245 92.5025 50.1703 92.7191 50.5578 92.8001V92.8048Z" fill="white"/>
<path d="M66.1957 88.5384C65.3349 88.5605 64.4852 88.3407 63.7431 87.904C63.053 87.4762 62.4994 86.8602 62.1475 86.1285C61.7637 85.3116 61.5725 84.4174 61.5889 83.515V75.0684H66.4229V82.4733C66.3858 83.03 66.5543 83.5809 66.8964 84.0216C67.0726 84.2134 67.2895 84.3636 67.5311 84.461C67.7727 84.5585 68.0331 84.6008 68.2931 84.585C68.6479 84.5947 68.9986 84.5062 69.3063 84.3293C69.5955 84.1541 69.8261 83.8971 69.9692 83.5907C70.1333 83.2283 70.2126 82.8332 70.2012 82.4355V75.0684H75.021V88.3254H70.4426L70.3716 84.8738H70.6226C70.3341 85.8524 69.807 86.744 69.0885 87.4684C68.7033 87.8324 68.2484 88.1148 67.7513 88.2987C67.2542 88.4826 66.7251 88.5641 66.1957 88.5384Z" fill="white"/>
</svg>
