<svg width="63" height="80" viewBox="0 0 63 80" fill="none" xmlns="http://www.w3.org/2000/svg">
<g clip-path="url(#clip0_2476_4714)">
<path d="M58.245 7.49227L26.5033 0.133693C23.6526 -0.525549 20.8107 1.24728 20.1514 4.09806L18.1826 12.6148H4.88196C2.19154 12.6148 0 14.7974 0 17.4967V75.127C0 77.8174 2.18263 80.009 4.88196 80.009H38.2895C40.98 80.009 43.1715 77.8263 43.1715 75.127V73.1671C45.9777 73.7373 48.7394 71.9822 49.3898 69.176L62.2094 13.8442C62.8686 10.9934 61.0958 8.15151 58.245 7.49227Z" fill="#FF6130"/>
<path d="M9.90966 36.7478H10.07L14.3729 23.2511H18.5333L12.4041 41.0239H7.56668L1.4375 23.2422H5.60677L9.90075 36.7388L9.90966 36.7478Z" fill="white"/>
<path d="M20.4648 24.0982C20.4648 23.0737 21.3646 22.2363 22.4604 22.2363C23.5562 22.2363 24.4648 23.0737 24.4648 24.0982C24.4648 25.1227 23.5651 25.9691 22.4604 25.9691C21.3557 25.9691 20.4648 25.1317 20.4648 24.0982ZM20.6074 27.6884H24.3045V41.0158H20.6074V27.6884Z" fill="white"/>
<path d="M27.3203 23.2433H31.0174V29.9248H31.1332C31.6321 28.8379 32.6922 27.5105 34.9283 27.5105C37.8504 27.5105 40.327 29.7823 40.327 34.3613C40.327 38.9404 37.9573 41.221 34.9194 41.221C32.7635 41.221 31.6499 39.9827 31.1332 38.8691H30.964V41.0072H27.3203V23.2344V23.2433ZM33.7435 38.2901C35.5608 38.2901 36.5497 36.6776 36.5497 34.3524C36.5497 32.0273 35.5787 30.4593 33.7435 30.4593C31.9083 30.4593 30.9372 31.9738 30.9372 34.3524C30.9372 36.731 31.9617 38.2901 33.7435 38.2901Z" fill="white"/>
<path d="M42.2344 34.4149C42.2344 30.299 44.7733 27.5195 48.7021 27.5195C52.221 27.5195 54.9649 29.7556 54.9649 34.2901V35.3057H45.8869C45.8869 37.3013 47.054 38.5218 48.907 38.5218C50.1364 38.5218 51.0896 37.9961 51.4638 36.9806L54.8847 37.2033C54.368 39.6799 52.1408 41.2835 48.8446 41.2835C44.7377 41.2835 42.2344 38.6465 42.2344 34.4238V34.4149ZM51.4816 33.0073C51.4816 31.4215 50.3591 30.2723 48.7555 30.2723C47.152 30.2723 45.9582 31.4839 45.8869 33.0073H51.4816Z" fill="white"/>
<path d="M10.4067 61.3097C5.66723 61.3097 2.08594 57.9689 2.08594 52.1783C2.08594 46.3876 5.66723 43.0469 10.4067 43.0469C15.1461 43.0469 18.7274 46.3609 18.7274 52.1783C18.7274 57.9957 15.1193 61.3097 10.4067 61.3097ZM10.4067 46.3787C7.67168 46.3787 5.89885 48.4188 5.89885 52.1872C5.89885 55.9556 7.68059 57.9956 10.4067 57.9956C13.1327 57.9956 14.9144 55.9556 14.9144 52.1872C14.9144 48.4188 13.1238 46.3787 10.4067 46.3787Z" fill="white"/>
<path d="M8.12455 74.94C7.0466 74.9489 6.11118 74.744 5.3094 74.3342C4.51653 73.9155 3.90183 73.3186 3.4653 72.5346C3.02878 71.7507 2.80606 70.8153 2.79715 69.7284C2.78824 68.6861 2.99314 67.7596 3.42076 66.9756C3.83947 66.1827 4.44526 65.5591 5.21141 65.1137C5.98646 64.6683 6.89515 64.4366 7.94637 64.4277C8.71252 64.4277 9.41631 64.5346 10.0488 64.7752C10.6813 65.0157 11.2248 65.3542 11.6791 65.8086C12.1335 66.254 12.4809 66.8064 12.7303 67.4389C12.9798 68.0803 13.1045 68.8019 13.1134 69.5948V70.4767L3.93747 70.5569L3.91965 68.5168L11.3762 68.4545L9.65684 68.8732C9.65684 68.4723 9.58557 68.1337 9.46085 67.8576C9.33613 67.5814 9.14905 67.3676 8.90851 67.2251C8.66798 67.0825 8.36508 67.0113 8.01764 67.0113C7.6702 67.0113 7.37622 67.0914 7.13568 67.2429C6.89515 67.3943 6.71698 67.6081 6.59225 67.8843C6.46753 68.1605 6.40517 68.499 6.41408 68.8999L6.4319 70.4144C6.4319 70.842 6.51208 71.1983 6.65461 71.4923C6.79715 71.7863 7.00205 71.9912 7.26931 72.1337C7.53657 72.2763 7.83947 72.3476 8.19582 72.3386C8.44526 72.3386 8.67689 72.303 8.88179 72.2317C9.08669 72.1605 9.26486 72.0536 9.41631 71.9199C9.55885 71.7863 9.67466 71.626 9.74593 71.4389L13.0154 71.7863C12.864 72.4099 12.5611 72.9533 12.1245 73.4255C11.6791 73.8977 11.1268 74.2629 10.4497 74.5213C9.77265 74.7796 9.00651 74.9133 8.13346 74.9222L8.12455 74.94Z" fill="white"/>
<path d="M18.5478 74.9138C17.7906 74.9138 17.1046 74.7178 16.4899 74.3258C15.8752 73.9339 15.3763 73.3548 15.02 72.5708C14.6547 71.7958 14.4766 70.8336 14.4766 69.6755C14.4766 68.4817 14.6726 67.5018 15.0556 66.7356C15.4387 65.9695 15.9376 65.3904 16.5523 65.0163C17.167 64.6421 17.8262 64.455 18.5389 64.4639C19.0289 64.4639 19.4565 64.5441 19.8307 64.7045C20.2048 64.8648 20.5167 65.0786 20.775 65.3637C21.0334 65.6399 21.2383 65.9517 21.3808 66.2991L21.4253 63.2969V55.8047L25.1314 55.8136L25.0957 74.7891H21.4432V73.1232H21.3719C21.2204 73.4884 21.0155 73.8002 20.7572 74.0675C20.4988 74.3348 20.1781 74.5396 19.804 74.7C19.4298 74.8515 19.0111 74.9316 18.5389 74.9227L18.5478 74.9138ZM19.8663 72.0719C20.2048 72.0719 20.4988 71.974 20.7394 71.778C20.9799 71.582 21.1759 71.3058 21.3184 70.9495C21.461 70.5931 21.5233 70.1744 21.5322 69.6844C21.5322 69.1855 21.4699 68.7579 21.3273 68.4016C21.1848 68.0452 20.9977 67.7691 20.7572 67.5731C20.5077 67.3771 20.2227 67.2791 19.8841 67.2791C19.5456 67.2791 19.2605 67.3771 19.02 67.5641C18.7795 67.7601 18.6013 68.0274 18.4677 68.3838C18.3429 68.7401 18.2806 69.1677 18.2717 69.6666C18.2717 70.1566 18.334 70.5842 18.4587 70.9405C18.5835 71.2969 18.7705 71.5731 19.0022 71.769C19.2427 71.9561 19.5278 72.0541 19.8663 72.0541V72.0719Z" fill="white"/>
<path d="M30.362 74.9395C29.6404 74.9395 29.0079 74.7703 28.4822 74.4407C27.9566 74.111 27.5468 73.6567 27.2707 73.0776C26.9856 72.4986 26.843 71.8304 26.852 71.0732L26.8787 64.6055L30.5847 64.6233L30.558 70.2981C30.558 70.8059 30.6827 71.1979 30.9321 71.4919C31.1816 71.7859 31.5379 71.9284 32.0012 71.9284C32.3041 71.9284 32.5624 71.866 32.7851 71.7324C32.9989 71.5988 33.1682 71.4117 33.2929 71.1712C33.4177 70.9217 33.48 70.6277 33.48 70.2892L33.5067 64.6411L37.2038 64.6589L37.1593 74.8326L33.6493 74.8148L33.6047 72.1689H33.8007C33.5513 72.9618 33.1593 73.6211 32.6159 74.1556C32.0724 74.6901 31.333 74.9574 30.3798 74.9485L30.362 74.9395Z" fill="white"/>
<path d="M25.1307 61.0592H21.4336V47.7318H24.9525V50.0837H25.1129C25.7098 48.5335 27.1441 47.5625 29.1218 47.5625C31.9013 47.5625 33.7187 49.469 33.7187 52.5781V61.0592H30.0216V53.2373C30.0216 51.607 29.1396 50.636 27.6519 50.636C26.1641 50.636 25.1396 51.6427 25.1307 53.3621V61.0681V61.0592Z" fill="white"/>
</g>
<defs>
<clipPath id="clip0_2476_4714">
<rect width="62.343" height="80" fill="white"/>
</clipPath>
</defs>
</svg>
