<svg width="86" height="83" viewBox="0 0 86 83" fill="none" xmlns="http://www.w3.org/2000/svg">
<path d="M27.2491 67.125L42.9991 57.625L58.7491 67.25L54.6241 49.25L68.4991 37.25L50.2491 35.625L42.9991 18.625L35.7491 35.5L17.4991 37.125L31.3741 49.25L27.2491 67.125ZM42.9991 69.375L22.2491 81.875C21.3324 82.4583 20.3741 82.7083 19.3741 82.625C18.3741 82.5417 17.4991 82.2083 16.7491 81.625C15.9991 81.0417 15.4158 80.3125 14.9991 79.4375C14.5824 78.5625 14.4991 77.5833 14.7491 76.5L20.2491 52.875L1.8741 37C1.04077 36.25 0.519932 35.3958 0.311599 34.4375C0.103265 33.4792 0.165765 32.5417 0.499099 31.625C0.832432 30.7083 1.33243 29.9583 1.9991 29.375C2.66577 28.7917 3.58243 28.4167 4.7491 28.25L28.9991 26.125L38.3741 3.875C38.7908 2.875 39.4366 2.125 40.3116 1.625C41.1866 1.125 42.0824 0.875 42.9991 0.875C43.9158 0.875 44.8116 1.125 45.6866 1.625C46.5616 2.125 47.2074 2.875 47.6241 3.875L56.9991 26.125L81.2491 28.25C82.4158 28.4167 83.3324 28.7917 83.9991 29.375C84.6658 29.9583 85.1658 30.7083 85.4991 31.625C85.8324 32.5417 85.8949 33.4792 85.6866 34.4375C85.4783 35.3958 84.9574 36.25 84.1241 37L65.7491 52.875L71.2491 76.5C71.4991 77.5833 71.4158 78.5625 70.9991 79.4375C70.5824 80.3125 69.9991 81.0417 69.2491 81.625C68.4991 82.2083 67.6241 82.5417 66.6241 82.625C65.6241 82.7083 64.6658 82.4583 63.7491 81.875L42.9991 69.375Z" fill="white"/>
</svg>
