<svg width="16" height="16" viewBox="0 0 16 16" fill="none" xmlns="http://www.w3.org/2000/svg">
<path d="M8.625 5.5V1.125C8.625 0.947917 8.68493 0.799444 8.80479 0.679583C8.92451 0.559861 9.07292 0.5 9.25 0.5H14.875C15.0521 0.5 15.2006 0.559861 15.3204 0.679583C15.4401 0.799444 15.5 0.947917 15.5 1.125V5.5C15.5 5.67708 15.4401 5.82549 15.3204 5.94521C15.2006 6.06507 15.0521 6.125 14.875 6.125H9.25C9.07292 6.125 8.92451 6.06507 8.80479 5.94521C8.68493 5.82549 8.625 5.67708 8.625 5.5ZM0.5 8V1.125C0.5 0.947917 0.559931 0.799444 0.679792 0.679583C0.799514 0.559861 0.947917 0.5 1.125 0.5H6.75C6.92708 0.5 7.07556 0.559861 7.19542 0.679583C7.31514 0.799444 7.375 0.947917 7.375 1.125V8C7.375 8.17708 7.31514 8.32549 7.19542 8.44521C7.07556 8.56507 6.92708 8.625 6.75 8.625H1.125C0.947917 8.625 0.799514 8.56507 0.679792 8.44521C0.559931 8.32549 0.5 8.17708 0.5 8ZM8.625 14.875V8C8.625 7.82292 8.68493 7.67444 8.80479 7.55458C8.92451 7.43486 9.07292 7.375 9.25 7.375H14.875C15.0521 7.375 15.2006 7.43486 15.3204 7.55458C15.4401 7.67444 15.5 7.82292 15.5 8V14.875C15.5 15.0521 15.4401 15.2005 15.3204 15.3202C15.2006 15.4401 15.0521 15.5 14.875 15.5H9.25C9.07292 15.5 8.92451 15.4401 8.80479 15.3202C8.68493 15.2005 8.625 15.0521 8.625 14.875ZM0.5 14.875V10.5C0.5 10.3229 0.559931 10.1744 0.679792 10.0546C0.799514 9.93486 0.947917 9.875 1.125 9.875H6.75C6.92708 9.875 7.07556 9.93486 7.19542 10.0546C7.31514 10.1744 7.375 10.3229 7.375 10.5V14.875C7.375 15.0521 7.31514 15.2005 7.19542 15.3202C7.07556 15.4401 6.92708 15.5 6.75 15.5H1.125C0.947917 15.5 0.799514 15.4401 0.679792 15.3202C0.559931 15.2005 0.5 15.0521 0.5 14.875ZM1.75 7.375H6.125V1.75H1.75V7.375ZM9.875 14.25H14.25V8.625H9.875V14.25ZM9.875 4.875H14.25V1.75H9.875V4.875ZM1.75 14.25H6.125V11.125H1.75V14.25Z" fill="#2870ED"/>
</svg>
